<svg xmlns="http://www.w3.org/2000/svg" viewBox="0 0 800 500" fill="none">
  <defs>
    <linearGradient id="bg1" x1="0%" y1="0%" x2="100%" y2="100%">
      <stop offset="0%" style="stop-color:#eff6ff"/>
      <stop offset="100%" style="stop-color:#dbeafe"/>
    </linearGradient>
    <linearGradient id="accent1" x1="0%" y1="0%" x2="100%" y2="100%">
      <stop offset="0%" style="stop-color:#3b82f6"/>
      <stop offset="100%" style="stop-color:#2563eb"/>
    </linearGradient>
  </defs>
  <!-- Background -->
  <rect width="800" height="500" rx="16" fill="url(#bg1)"/>
  <!-- Server rack -->
  <rect x="480" y="80" width="240" height="340" rx="12" fill="#1e293b" opacity="0.9"/>
  <rect x="498" y="100" width="204" height="36" rx="4" fill="#334155"/>
  <circle cx="516" cy="118" r="5" fill="#22c55e"/>
  <circle cx="534" cy="118" r="5" fill="#22c55e"/>
  <circle cx="552" cy="118" r="5" fill="#3b82f6"/>
  <rect x="620" y="108" width="64" height="4" rx="2" fill="#475569"/>
  <rect x="620" y="118" width="48" height="4" rx="2" fill="#475569"/>
  <rect x="498" y="148" width="204" height="36" rx="4" fill="#334155"/>
  <circle cx="516" cy="166" r="5" fill="#22c55e"/>
  <circle cx="534" cy="166" r="5" fill="#f59e0b"/>
  <circle cx="552" cy="166" r="5" fill="#3b82f6"/>
  <rect x="620" y="156" width="64" height="4" rx="2" fill="#475569"/>
  <rect x="620" y="166" width="48" height="4" rx="2" fill="#475569"/>
  <rect x="498" y="196" width="204" height="36" rx="4" fill="#334155"/>
  <circle cx="516" cy="214" r="5" fill="#22c55e"/>
  <circle cx="534" cy="214" r="5" fill="#22c55e"/>
  <circle cx="552" cy="214" r="5" fill="#22c55e"/>
  <rect x="620" y="204" width="64" height="4" rx="2" fill="#475569"/>
  <rect x="620" y="214" width="48" height="4" rx="2" fill="#475569"/>
  <rect x="498" y="244" width="204" height="36" rx="4" fill="#334155"/>
  <circle cx="516" cy="262" r="5" fill="#22c55e"/>
  <circle cx="534" cy="262" r="5" fill="#3b82f6"/>
  <circle cx="552" cy="262" r="5" fill="#22c55e"/>
  <rect x="620" y="252" width="64" height="4" rx="2" fill="#475569"/>
  <rect x="620" y="262" width="48" height="4" rx="2" fill="#475569"/>
  <rect x="498" y="292" width="204" height="36" rx="4" fill="#334155"/>
  <circle cx="516" cy="310" r="5" fill="#22c55e"/>
  <circle cx="534" cy="310" r="5" fill="#22c55e"/>
  <circle cx="552" cy="310" r="5" fill="#3b82f6"/>
  <rect x="498" y="340" width="204" height="36" rx="4" fill="#334155"/>
  <circle cx="516" cy="358" r="5" fill="#f59e0b"/>
  <circle cx="534" cy="358" r="5" fill="#22c55e"/>
  <!-- Engineer person -->
  <!-- Head -->
  <circle cx="260" cy="150" r="40" fill="#fcd34d"/>
  <circle cx="245" cy="142" r="4" fill="#1e293b"/>
  <circle cx="275" cy="142" r="4" fill="#1e293b"/>
  <path d="M250 162 Q260 172 270 162" stroke="#1e293b" stroke-width="2.5" fill="none"/>
  <!-- Hair -->
  <path d="M222 140 Q220 110 260 100 Q300 110 298 140" fill="#1e293b" opacity="0.8"/>
  <!-- Body -->
  <rect x="228" y="190" width="64" height="100" rx="8" fill="url(#accent1)"/>
  <!-- T-shirt collar -->
  <path d="M248 190 L260 210 L272 190" fill="#1d4ed8"/>
  <!-- Arms -->
  <rect x="196" y="200" width="32" height="14" rx="7" fill="url(#accent1)" transform="rotate(-20 196 207)"/>
  <rect x="292" y="196" width="80" height="14" rx="7" fill="url(#accent1)" transform="rotate(15 292 203)"/>
  <!-- Hand reaching to server -->
  <circle cx="368" cy="220" r="12" fill="#fcd34d"/>
  <!-- Legs -->
  <rect x="236" y="286" width="22" height="80" rx="6" fill="#334155"/>
  <rect x="262" y="286" width="22" height="80" rx="6" fill="#334155"/>
  <!-- Shoes -->
  <rect x="230" y="358" width="34" height="14" rx="7" fill="#1e293b"/>
  <rect x="256" y="358" width="34" height="14" rx="7" fill="#1e293b"/>
  <!-- Laptop on stand -->
  <rect x="80" y="260" width="140" height="90" rx="8" fill="#1e293b"/>
  <rect x="88" y="268" width="124" height="72" rx="4" fill="#0f172a"/>
  <!-- Screen content -->
  <rect x="96" y="276" width="40" height="6" rx="2" fill="#3b82f6"/>
  <rect x="96" y="288" width="80" height="4" rx="2" fill="#475569"/>
  <rect x="96" y="298" width="60" height="4" rx="2" fill="#475569"/>
  <rect x="96" y="308" width="100" height="4" rx="2" fill="#22c55e" opacity="0.6"/>
  <rect x="96" y="318" width="70" height="4" rx="2" fill="#475569"/>
  <!-- Stand -->
  <rect x="140" y="350" width="20" height="30" rx="3" fill="#64748b"/>
  <rect x="120" y="378" width="60" height="6" rx="3" fill="#64748b"/>
  <!-- Connection cable -->
  <path d="M220 300 Q350 320 460 260" stroke="#3b82f6" stroke-width="2" stroke-dasharray="8 4" opacity="0.5"/>
  <!-- WiFi signals near server -->
  <path d="M550 60 Q565 50 580 60" stroke="#3b82f6" stroke-width="2" fill="none" opacity="0.4"/>
  <path d="M540 48 Q565 34 590 48" stroke="#3b82f6" stroke-width="2" fill="none" opacity="0.3"/>
  <path d="M530 36 Q565 18 600 36" stroke="#3b82f6" stroke-width="2" fill="none" opacity="0.2"/>
  <!-- Floor -->
  <rect x="40" y="400" width="720" height="4" rx="2" fill="#94a3b8" opacity="0.3"/>
  <!-- Status floating badges -->
  <rect x="60" y="100" width="100" height="32" rx="16" fill="#22c55e" opacity="0.15"/>
  <circle cx="80" cy="116" r="5" fill="#22c55e"/>
  <rect x="92" y="112" width="52" height="6" rx="3" fill="#22c55e" opacity="0.5"/>
  <rect x="60" y="144" width="80" height="32" rx="16" fill="#3b82f6" opacity="0.15"/>
  <circle cx="80" cy="160" r="5" fill="#3b82f6"/>
  <rect x="92" y="156" width="32" height="6" rx="3" fill="#3b82f6" opacity="0.5"/>
</svg>
