<svg xmlns="http://www.w3.org/2000/svg" viewBox="0 0 800 500" fill="none">
  <defs>
    <linearGradient id="bgS" x1="0%" y1="0%" x2="100%" y2="100%">
      <stop offset="0%" style="stop-color:#eff6ff"/>
      <stop offset="100%" style="stop-color:#dbeafe"/>
    </linearGradient>
  </defs>
  <rect width="800" height="500" rx="16" fill="url(#bgS)"/>
  <!-- Desk -->
  <rect x="100" y="300" width="600" height="12" rx="4" fill="#94a3b8" opacity="0.4"/>
  <rect x="120" y="312" width="16" height="80" rx="4" fill="#94a3b8" opacity="0.3"/>
  <rect x="664" y="312" width="16" height="80" rx="4" fill="#94a3b8" opacity="0.3"/>
  <!-- Monitor 1 -->
  <rect x="160" y="160" width="200" height="135" rx="10" fill="#1e293b"/>
  <rect x="170" y="170" width="180" height="110" rx="4" fill="#0f172a"/>
  <!-- Screen content - dashboard -->
  <rect x="180" y="180" width="60" height="8" rx="3" fill="#3b82f6"/>
  <rect x="180" y="196" width="160" height="4" rx="2" fill="#475569"/>
  <rect x="180" y="208" width="120" height="4" rx="2" fill="#475569"/>
  <!-- Chart bars -->
  <rect x="180" y="240" width="16" height="30" rx="2" fill="#3b82f6" opacity="0.6"/>
  <rect x="202" y="230" width="16" height="40" rx="2" fill="#3b82f6" opacity="0.8"/>
  <rect x="224" y="220" width="16" height="50" rx="2" fill="#3b82f6"/>
  <rect x="246" y="235" width="16" height="35" rx="2" fill="#22c55e" opacity="0.7"/>
  <rect x="268" y="225" width="16" height="45" rx="2" fill="#22c55e"/>
  <rect x="290" y="215" width="16" height="55" rx="2" fill="#22c55e"/>
  <!-- Monitor stand -->
  <rect x="246" y="295" width="28" height="8" rx="2" fill="#64748b"/>
  <!-- Monitor 2 -->
  <rect x="420" y="170" width="200" height="125" rx="10" fill="#1e293b"/>
  <rect x="430" y="180" width="180" height="100" rx="4" fill="#0f172a"/>
  <!-- Screen content - tickets -->
  <rect x="440" y="190" width="50" height="6" rx="2" fill="#f59e0b"/>
  <rect x="440" y="204" width="160" height="3" rx="1.5" fill="#475569"/>
  <rect x="440" y="213" width="140" height="3" rx="1.5" fill="#475569"/>
  <rect x="440" y="226" width="160" height="3" rx="1.5" fill="#475569"/>
  <rect x="440" y="235" width="120" height="3" rx="1.5" fill="#475569"/>
  <circle cx="590" cy="206" r="6" fill="#22c55e" opacity="0.6"/>
  <circle cx="590" cy="227" r="6" fill="#f59e0b" opacity="0.6"/>
  <circle cx="590" cy="237" r="6" fill="#22c55e" opacity="0.6"/>
  <rect x="440" y="250" width="160" height="3" rx="1.5" fill="#475569"/>
  <rect x="440" y="259" width="100" height="3" rx="1.5" fill="#475569"/>
  <circle cx="590" cy="252" r="6" fill="#3b82f6" opacity="0.6"/>
  <rect x="506" y="295" width="28" height="8" rx="2" fill="#64748b"/>
  <!-- Person 1 (support agent, seated) -->
  <circle cx="310" cy="100" r="30" fill="#fcd34d"/>
  <circle cx="298" cy="94" r="3" fill="#1e293b"/>
  <circle cx="322" cy="94" r="3" fill="#1e293b"/>
  <path d="M302 108 Q310 115 318 108" stroke="#1e293b" stroke-width="2" fill="none"/>
  <path d="M282 90 Q280 68 310 60 Q340 68 338 90" fill="#1e293b" opacity="0.7"/>
  <!-- Headset -->
  <path d="M278 90 Q275 70 310 58 Q345 70 342 90" stroke="#3b82f6" stroke-width="3" fill="none"/>
  <circle cx="278" cy="92" r="8" fill="#3b82f6"/>
  <circle cx="342" cy="92" r="8" fill="#3b82f6"/>
  <rect x="268" y="102" width="10" height="16" rx="3" fill="#3b82f6"/>
  <!-- Body -->
  <rect x="284" y="128" width="52" height="80" rx="6" fill="#3b82f6"/>
  <!-- Arms on keyboard -->
  <path d="M284 160 L240 200 Q230 210 240 215" stroke="#fcd34d" stroke-width="12" stroke-linecap="round" fill="none"/>
  <path d="M336 160 L380 200 Q390 210 380 215" stroke="#fcd34d" stroke-width="12" stroke-linecap="round" fill="none"/>
  <!-- Keyboard -->
  <rect x="220" y="284" width="180" height="14" rx="4" fill="#64748b" opacity="0.5"/>
  <!-- Coffee mug -->
  <rect x="640" y="268" width="24" height="30" rx="4" fill="#f59e0b" opacity="0.6"/>
  <path d="M664 276 Q678 280 664 290" stroke="#f59e0b" stroke-width="2.5" fill="none" opacity="0.6"/>
  <!-- Steam -->
  <path d="M648 258 Q652 248 648 240" stroke="#94a3b8" stroke-width="1.5" fill="none" opacity="0.4"/>
  <path d="M656 256 Q660 244 656 236" stroke="#94a3b8" stroke-width="1.5" fill="none" opacity="0.3"/>
  <!-- Chat bubbles floating -->
  <rect x="550" y="60" width="120" height="44" rx="10" fill="#3b82f6" opacity="0.15"/>
  <rect x="564" y="72" width="60" height="5" rx="2" fill="#3b82f6" opacity="0.4"/>
  <rect x="564" y="83" width="88" height="5" rx="2" fill="#3b82f6" opacity="0.3"/>
  <rect x="130" y="60" width="100" height="44" rx="10" fill="#22c55e" opacity="0.15"/>
  <rect x="144" y="72" width="40" height="5" rx="2" fill="#22c55e" opacity="0.4"/>
  <rect x="144" y="83" width="72" height="5" rx="2" fill="#22c55e" opacity="0.3"/>
  <!-- Network connections -->
  <circle cx="700" cy="140" r="4" fill="#3b82f6" opacity="0.3"/>
  <circle cx="730" cy="120" r="3" fill="#3b82f6" opacity="0.2"/>
  <circle cx="720" cy="160" r="3" fill="#3b82f6" opacity="0.25"/>
  <line x1="700" y1="140" x2="730" y2="120" stroke="#3b82f6" stroke-width="1" opacity="0.15"/>
  <line x1="700" y1="140" x2="720" y2="160" stroke="#3b82f6" stroke-width="1" opacity="0.15"/>
  <!-- Floor -->
  <rect x="40" y="400" width="720" height="4" rx="2" fill="#94a3b8" opacity="0.2"/>
</svg>
