<svg xmlns="http://www.w3.org/2000/svg" viewBox="0 0 800 500" fill="none">
  <defs>
    <linearGradient id="bgN" x1="0%" y1="0%" x2="100%" y2="100%">
      <stop offset="0%" style="stop-color:#eff6ff"/>
      <stop offset="100%" style="stop-color:#dbeafe"/>
    </linearGradient>
  </defs>
  <rect width="800" height="500" rx="16" fill="url(#bgN)"/>
  <!-- Central hub -->
  <circle cx="400" cy="250" r="60" fill="#3b82f6" opacity="0.1"/>
  <circle cx="400" cy="250" r="40" fill="#3b82f6" opacity="0.15"/>
  <circle cx="400" cy="250" r="24" fill="#3b82f6" opacity="0.25"/>
  <circle cx="400" cy="250" r="10" fill="#3b82f6"/>
  <!-- Connection lines -->
  <line x1="400" y1="250" x2="180" y2="120" stroke="#3b82f6" stroke-width="2" opacity="0.3"/>
  <line x1="400" y1="250" x2="620" y2="120" stroke="#3b82f6" stroke-width="2" opacity="0.3"/>
  <line x1="400" y1="250" x2="180" y2="380" stroke="#3b82f6" stroke-width="2" opacity="0.3"/>
  <line x1="400" y1="250" x2="620" y2="380" stroke="#3b82f6" stroke-width="2" opacity="0.3"/>
  <line x1="400" y1="250" x2="140" y2="250" stroke="#3b82f6" stroke-width="2" opacity="0.3"/>
  <line x1="400" y1="250" x2="660" y2="250" stroke="#3b82f6" stroke-width="2" opacity="0.3"/>
  <!-- Data flow dots -->
  <circle cx="290" cy="185" r="4" fill="#3b82f6" opacity="0.6">
    <animate attributeName="cx" values="290;320;350" dur="2s" repeatCount="indefinite"/>
    <animate attributeName="cy" values="185;210;235" dur="2s" repeatCount="indefinite"/>
  </circle>
  <circle cx="510" cy="185" r="4" fill="#22c55e" opacity="0.6">
    <animate attributeName="cx" values="510;480;450" dur="2.5s" repeatCount="indefinite"/>
    <animate attributeName="cy" values="185;210;235" dur="2.5s" repeatCount="indefinite"/>
  </circle>
  <!-- Node: Server -->
  <rect x="140" y="80" width="80" height="80" rx="12" fill="white" stroke="#e5e7eb" stroke-width="1.5"/>
  <rect x="156" y="96" width="48" height="12" rx="3" fill="#1e293b"/>
  <circle cx="164" cy="102" r="2.5" fill="#22c55e"/>
  <circle cx="172" cy="102" r="2.5" fill="#22c55e"/>
  <rect x="156" y="114" width="48" height="12" rx="3" fill="#1e293b"/>
  <circle cx="164" cy="120" r="2.5" fill="#22c55e"/>
  <circle cx="172" cy="120" r="2.5" fill="#3b82f6"/>
  <rect x="156" y="132" width="48" height="12" rx="3" fill="#1e293b"/>
  <circle cx="164" cy="138" r="2.5" fill="#22c55e"/>
  <text x="180" y="175" font-family="Inter, sans-serif" font-size="11" font-weight="600" fill="#6b7280" text-anchor="middle">Server</text>
  <!-- Node: Cloud -->
  <path d="M580 100 Q580 80 600 80 Q610 65 630 70 Q650 65 655 80 Q670 85 665 100 Q670 110 660 115 L580 115 Q570 110 575 100 Z" fill="white" stroke="#e5e7eb" stroke-width="1.5"/>
  <rect x="596" y="90" width="28" height="4" rx="2" fill="#3b82f6" opacity="0.5"/>
  <rect x="596" y="98" width="40" height="4" rx="2" fill="#3b82f6" opacity="0.3"/>
  <text x="620" y="140" font-family="Inter, sans-serif" font-size="11" font-weight="600" fill="#6b7280" text-anchor="middle">Cloud</text>
  <!-- Node: Laptop -->
  <rect x="120" y="220" width="60" height="40" rx="6" fill="white" stroke="#e5e7eb" stroke-width="1.5"/>
  <rect x="128" y="228" width="44" height="24" rx="2" fill="#0f172a"/>
  <rect x="134" y="234" width="20" height="3" rx="1" fill="#3b82f6" opacity="0.6"/>
  <rect x="134" y="240" width="30" height="2" rx="1" fill="#475569"/>
  <rect x="110" y="262" width="80" height="6" rx="3" fill="#e5e7eb"/>
  <text x="150" y="285" font-family="Inter, sans-serif" font-size="11" font-weight="600" fill="#6b7280" text-anchor="middle">Laptop</text>
  <!-- Node: Phone -->
  <rect x="630" y="220" width="36" height="60" rx="6" fill="white" stroke="#e5e7eb" stroke-width="1.5"/>
  <rect x="636" y="230" width="24" height="36" rx="2" fill="#0f172a"/>
  <circle cx="648" cy="272" r="3" fill="#e5e7eb"/>
  <text x="648" y="300" font-family="Inter, sans-serif" font-size="11" font-weight="600" fill="#6b7280" text-anchor="middle">Mobile</text>
  <!-- Node: Workstation -->
  <rect x="140" y="350" width="80" height="60" rx="10" fill="white" stroke="#e5e7eb" stroke-width="1.5"/>
  <rect x="152" y="358" width="56" height="34" rx="4" fill="#0f172a"/>
  <rect x="160" y="364" width="20" height="3" rx="1" fill="#22c55e" opacity="0.6"/>
  <rect x="160" y="370" width="36" height="2" rx="1" fill="#475569"/>
  <rect x="160" y="376" width="28" height="2" rx="1" fill="#475569"/>
  <rect x="168" y="396" width="24" height="6" rx="2" fill="#94a3b8" opacity="0.5"/>
  <text x="180" y="430" font-family="Inter, sans-serif" font-size="11" font-weight="600" fill="#6b7280" text-anchor="middle">Desktop</text>
  <!-- Node: Printer -->
  <rect x="580" y="355" width="80" height="50" rx="8" fill="white" stroke="#e5e7eb" stroke-width="1.5"/>
  <rect x="590" y="362" width="60" height="8" rx="2" fill="#94a3b8" opacity="0.3"/>
  <rect x="594" y="376" width="52" height="16" rx="3" fill="#1e293b"/>
  <circle cx="636" cy="384" r="3" fill="#22c55e"/>
  <text x="620" y="425" font-family="Inter, sans-serif" font-size="11" font-weight="600" fill="#6b7280" text-anchor="middle">Printer</text>
  <!-- Shield icon in center -->
  <path d="M400 230 L400 230 L388 236 L388 248 Q388 258 400 264 Q412 258 412 248 L412 236 Z" fill="#3b82f6" opacity="0.3"/>
  <path d="M396 248 L400 252 L408 242" stroke="white" stroke-width="2" fill="none"/>
  <!-- Decorative dots -->
  <circle cx="80" cy="80" r="3" fill="#3b82f6" opacity="0.15"/>
  <circle cx="720" cy="60" r="4" fill="#3b82f6" opacity="0.1"/>
  <circle cx="60" cy="420" r="3" fill="#3b82f6" opacity="0.1"/>
  <circle cx="740" cy="440" r="5" fill="#3b82f6" opacity="0.08"/>
</svg>
